# xmcd
#
# Track frame offsets:
#	150
#	15495
#	34302
#	57780
#	72794
#	95792
#	112763
#	133580
#	157935
#	176899
#	198088
#	218919
#	246507
#	267079
#	288258
#	311784
#
# Disc length: 4585 seconds
#
# Revision: 0
# Processed by: cddbd v1.5.1PL2 Copyright (c) Steve Scherf et al.
# Submitted via: EasyCDDAExtractor 8.1.2.3
#
DISCID=e311e710
DTITLE=Rohff - Au dela de mes limites [CD 1)
DYEAR=2005
DGENRE=Rap
TTITLE0=Le cauchemar du rap francais
TTITLE1=La puissance
TTITLE2=J'espere que
TTITLE3=Tout se paye
TTITLE4=Avec ou sans
TTITLE5=Dis mon nom
TTITLE6=Generation Mc Gyver la debrouille
TTITLE7=La hass
TTITLE8=Personne
TTITLE9=Premier sur le ghetto
TTITLE10=Bol d'air
TTITLE11=Le pouvoir
TTITLE12=Le temps passe
TTITLE13=Arrete ta flute
TTITLE14=Starfukeuze
TTITLE15=Relation de merde
EXTD=
EXTT0=
EXTT1=
EXTT2=
EXTT3=
EXTT4=
EXTT5=
EXTT6=
EXTT7=
EXTT8=
EXTT9=
EXTT10=
EXTT11=
EXTT12=
EXTT13=
EXTT14=
EXTT15=
PLAYORDER=
